<svg version="1.2" xmlns="http://www.w3.org/2000/svg" viewBox="0 0 18 18" width="18" height="18"><defs><clipPath clipPathUnits="userSpaceOnUse" id="cp1"><path d="m-1162-68h1440v5244h-1440z"/></clipPath></defs><style></style><g clip-path="url(#cp1)"><path  d="m16 18h-9c-0.5 0-1-0.2-1.4-0.6-0.4-0.4-0.6-0.9-0.6-1.4v-4h2v4h9v-14h-9v4h-2v-4c0-0.5 0.2-1 0.6-1.4 0.4-0.4 0.9-0.6 1.4-0.6h9c0.5 0 1 0.2 1.4 0.6 0.4 0.4 0.6 0.9 0.6 1.4v14c0 0.5-0.2 1-0.6 1.4-0.4 0.4-0.9 0.6-1.4 0.6zm-7-5v-3h-9v-2h9v-3l5 4z"/></g></svg>