<svg version="1.2" xmlns="http://www.w3.org/2000/svg" viewBox="0 0 601 361" width="601" height="361"><defs><clipPath clipPathUnits="userSpaceOnUse" id="cp1"><path d="m-410-168h1440v5244h-1440z"/></clipPath></defs><style>.a{fill:none;stroke:#000;stroke-linecap:round;stroke-miterlimit:100;stroke-width:2}.b{fill:#fff}.c{fill:#0c9}</style><g clip-path="url(#cp1)"><path class="a" d="m10 339c-2.1 0-4.2 0.8-5.7 2.3-1.5 1.5-2.3 3.6-2.3 5.7 0 1.9 0.4 3.1 1.5 4.5l6.5 7.5 6.5-7.5c1.1-1.4 1.5-2.6 1.5-4.5 0-2.1-0.8-4.2-2.3-5.7-1.5-1.5-3.6-2.3-5.7-2.3z"/><path  d="m111.5 348.1q0 0.1 0 0.2-0.1 0.1-0.2 0.2l-3 2.4q-0.1 0.1-0.3 0.1-0.2 0-0.3-0.1l-3-2.5q-0.2-0.1-0.2-0.3 0-0.3 0.1-0.4 0.1-0.2 0.4-0.2 0.2 0 0.3 0.1l2.7 2.3 2.7-2.2q0.1-0.1 0.2-0.1 0.2 0 0.3 0 0.1 0.1 0.2 0.2 0.1 0.1 0.1 0.3z"/><path fill-rule="evenodd" class="b" d="m529 4.2l56.9-3.6c5.5-0.3 10.2 3.9 10.6 9.4l3.6 56.9c0.3 5.5-3.9 10.2-9.4 10.6l-56.9 3.6c-5.5 0.3-10.2-3.9-10.6-9.4l-3.6-56.9c-0.3-5.5 3.9-10.2 9.4-10.6z"/><path fill-rule="evenodd" class="c" d="m574.8 54c-1 1.2-2.4 1.8-3.9 1.9l-8.7 0.6-3.7-3.3c0.8-2 1-4.1 0.5-6.2-0.5-2-1.7-3.9-3.2-5.2-1.6-1.4-3.6-2.3-5.7-2.5-2.1-0.2-4.2 0.3-6 1.3l-0.4-5.5 31.4-2 1.1 16.9c0.1 1.4-0.4 2.9-1.4 4zm0.2-23.1l-31.4 2-0.1-1.2c-0.1-1.5 0.4-2.9 1.4-4 1-1.2 2.4-1.8 3.8-1.9l20.3-1.3c1.4-0.1 2.9 0.4 4 1.4 1.2 1 1.8 2.4 1.9 3.8zm-20.8 24.6c-1.5 1.3-3.4 1.9-5.4 1.9-2-0.1-3.9-1-5.3-2.4-1.4-1.4-2.2-3.3-2.2-5.3-0.1-2 0.6-3.9 1.9-5.4 1.3-1.5 3.2-2.5 5.2-2.6 1.9-0.2 3.9 0.3 5.5 1.5 1.6 1.2 2.7 3 3 5 0.3 1.9-0.1 3.9-1.2 5.6l6.1 5.4c0.2 0.2 0.4 0.4 0.4 0.7 0 0.3-0.1 0.6-0.3 0.9-0.2 0.2-0.5 0.3-0.8 0.3-0.3 0.1-0.5 0-0.8-0.2l-6.1-5.4zm0.6-6.4c-0.1-1.5-0.8-2.8-1.9-3.8-1.2-1-2.6-1.5-4.1-1.4-1.5 0.1-2.9 0.8-3.9 1.9-1 1.1-1.5 2.6-1.4 4 0.1 1.5 0.8 2.9 1.9 3.9 1.1 1 2.6 1.5 4.1 1.4 1.5-0.1 2.9-0.8 3.9-1.9 0.9-1.1 1.4-2.6 1.4-4.1z"/></g></svg>