<svg version="1.2" xmlns="http://www.w3.org/2000/svg" viewBox="0 0 84 84" width="84" height="84"><defs><clipPath clipPathUnits="userSpaceOnUse" id="cp1"><path d="m-902-435h1440v5244h-1440z"/></clipPath></defs><style>.a{fill:#fff}.b{fill:#0c9}</style><g clip-path="url(#cp1)"><path fill-rule="evenodd" class="a" d="m8.9 6.5l56.7-6.4c5.5-0.6 10.4 3.3 11 8.8l6.4 56.7c0.6 5.5-3.4 10.4-8.9 11l-56.6 6.4c-5.5 0.6-10.4-3.4-11.1-8.9l-6.3-56.6c-0.6-5.5 3.3-10.4 8.8-11z"/><path fill-rule="evenodd" class="b" d="m44 60.7q-0.4 0.2-0.8 0.3-0.4 0-0.8-0.1c-19.9-6.3-20.4-27.7-20.4-27.9q0-0.5 0.2-1 0.3-0.5 0.7-0.7l15-9.8q0.4-0.2 0.9-0.3 0.4 0 0.9 0.1l16.8 6.2q0.5 0.2 0.8 0.6 0.3 0.4 0.4 0.9c0.1 0.2 4.3 21.2-13.7 31.7zm9.8-21l-12.8 1.4-1.8-15.7-13.2 8.6c0.3 2.9 1 5.8 2.1 8.5l12.9-1.4 1.7 15.7c7.5-4.7 10.2-11.5 11.1-17.1z"/></g></svg>