<svg version="1.2" xmlns="http://www.w3.org/2000/svg" viewBox="0 0 21 25" width="21" height="25"><defs><clipPath clipPathUnits="userSpaceOnUse" id="cp1"><path d="m-409-504h1440v5244h-1440z"/></clipPath></defs><style>.a{fill:none;stroke:#000;stroke-linecap:round;stroke-miterlimit:100;stroke-width:2}</style><g clip-path="url(#cp1)"><path class="a" d="m11 14c1.7 0 3-1.3 3-3 0-1.7-1.3-3-3-3-1.7 0-3 1.3-3 3 0 1.7 1.3 3 3 3z"/><path class="a" d="m11 3c-2.1 0-4.2 0.8-5.7 2.3-1.5 1.5-2.3 3.6-2.3 5.7 0 1.9 0.4 3.1 1.5 4.5l6.5 7.5 6.5-7.5c1.1-1.4 1.5-2.6 1.5-4.5 0-2.1-0.8-4.2-2.3-5.7-1.5-1.5-3.6-2.3-5.7-2.3z"/></g></svg>