<svg version="1.2" xmlns="http://www.w3.org/2000/svg" viewBox="0 0 165 30" width="165" height="30"><defs><clipPath clipPathUnits="userSpaceOnUse" id="cp1"><path d="m-100-62h1440v5244h-1440z"/></clipPath></defs><style>.a{fill:#0c9}</style><g clip-path="url(#cp1)"><path  d="m18.8 1.8v18.9q0 4.4-2.5 6.8-2.4 2.4-6.6 2.4-4.4 0-7-2.5-2.7-2.5-2.7-7.1h6.7q0 1.7 0.7 2.6 0.8 0.9 2.1 0.9 1.2 0 1.9-0.8 0.7-0.8 0.7-2.3v-18.9z"/><path fill-rule="evenodd" d="m34.4 29.9q-3.3 0-5.9-1.4-2.6-1.4-4.1-3.9-1.4-2.6-1.4-6.1 0-3.4 1.5-5.9 1.5-2.7 4.1-4 2.6-1.4 5.8-1.4 3.3 0 5.9 1.4 2.6 1.3 4.1 4 1.5 2.5 1.5 5.9 0 3.4-1.5 6.1-1.5 2.5-4.2 3.9-2.6 1.4-5.8 1.4zm0-5.9q1.9 0 3.2-1.4 1.4-1.4 1.4-4.1 0-2.6-1.3-4-1.3-1.5-3.3-1.5-1.9 0-3.2 1.5-1.4 1.3-1.4 4 0 2.7 1.3 4.1 1.3 1.4 3.3 1.4z"/><path fill-rule="evenodd" d="m56.3 10.6q0.9-1.5 2.7-2.5 1.8-0.9 4.1-0.9 2.7 0 4.9 1.4 2.3 1.3 3.5 3.9 1.3 2.6 1.3 6 0 3.4-1.3 6-1.2 2.6-3.5 4-2.2 1.4-4.9 1.4-2.3 0-4.1-0.9-1.7-1-2.7-2.5v3.1h-6.8v-29.3h6.8zm9.6 7.9q0-2.6-1.4-4-1.4-1.5-3.4-1.5-2 0-3.5 1.5-1.4 1.5-1.4 4 0 2.5 1.4 4 1.5 1.5 3.5 1.5 2 0 3.4-1.5 1.4-1.5 1.4-4z"/><path class="a" d="m103.2 29.6h-6.8l-11.3-17.2v17.2h-6.8v-27.8h6.8l11.3 17.2v-17.2h6.8z"/><path fill-rule="evenodd" class="a" d="m118.1 29.9q-3.2 0-5.8-1.4-2.6-1.4-4.1-3.9-1.5-2.6-1.5-6.1 0-3.4 1.5-5.9 1.6-2.7 4.2-4 2.6-1.4 5.8-1.4 3.3 0 5.9 1.4 2.6 1.3 4.1 4 1.5 2.5 1.5 5.9 0 3.4-1.5 6.1-1.5 2.5-4.2 3.9-2.6 1.4-5.9 1.4zm0-5.9q2 0 3.3-1.4 1.4-1.4 1.4-4.1 0-2.6-1.3-4-1.3-1.5-3.3-1.5-2 0-3.3 1.5-1.3 1.3-1.3 4 0 2.7 1.3 4.1 1.3 1.4 3.2 1.4z"/><path class="a" d="m165 7.5l-6 22.1h-7.5l-3.4-14.4-3.6 14.4h-7.5l-6-22.1h6.8l3.1 15.8 3.7-15.8h7.2l3.7 15.7 3.1-15.7z"/></g></svg>