<svg version="1.2" xmlns="http://www.w3.org/2000/svg" viewBox="0 0 21 21" width="21" height="21"><defs><clipPath clipPathUnits="userSpaceOnUse" id="cp1"><path d="m-129-506h1440v5244h-1440z"/></clipPath></defs><style>.a{fill:none;stroke:#000;stroke-linecap:round;stroke-miterlimit:100;stroke-width:2}</style><g clip-path="url(#cp1)"><path fill-rule="evenodd" class="a" d="m16.8 9.7c0 1.9-0.7 3.7-2 5.1-1.4 1.3-3.2 2-5.1 2-1.8 0-3.6-0.7-5-2-1.3-1.4-2-3.2-2-5.1 0-1.8 0.7-3.6 2-5 1.4-1.3 3.2-2 5-2 1.9 0 3.7 0.7 5.1 2 1.3 1.4 2 3.2 2 5zm1.7 8.8l-3.7-3.7z"/></g></svg>